<?xml version="1.0" encoding="UTF-8" standalone="no"?>
<!-- Created with Inkscape (http://www.inkscape.org/) -->

<svg
   width="512"
   height="512"
   viewBox="0 0 512 512"
   version="1.1"
   id="svg1"
   xml:space="preserve"
   inkscape:version="1.3 (0e150ed6c4, 2023-07-21)"
   sodipodi:docname="icon.svg"
   xmlns:inkscape="http://www.inkscape.org/namespaces/inkscape"
   xmlns:sodipodi="http://sodipodi.sourceforge.net/DTD/sodipodi-0.dtd"
   xmlns:xlink="http://www.w3.org/1999/xlink"
   xmlns="http://www.w3.org/2000/svg"
   xmlns:svg="http://www.w3.org/2000/svg"><sodipodi:namedview
     id="namedview1"
     pagecolor="#ffffff"
     bordercolor="#000000"
     borderopacity="0.25"
     inkscape:showpageshadow="2"
     inkscape:pageopacity="0.0"
     inkscape:pagecheckerboard="0"
     inkscape:deskcolor="#d1d1d1"
     inkscape:document-units="px"
     inkscape:zoom="1.9390649"
     inkscape:cx="253.73054"
     inkscape:cy="244.18986"
     inkscape:window-width="1854"
     inkscape:window-height="1177"
     inkscape:window-x="58"
     inkscape:window-y="-8"
     inkscape:window-maximized="1"
     inkscape:current-layer="layer2" /><defs
     id="defs1"><linearGradient
   id="linearGradient44"
   inkscape:collect="always"><stop
     style="stop-color:#0000ff;stop-opacity:1;"
     offset="0"
     id="stop45" /><stop
     style="stop-color:#ff0000;stop-opacity:1;"
     offset="0.25"
     id="stop2" /><stop
     style="stop-color:#00ff00;stop-opacity:1;"
     offset="0.5"
     id="stop1" /><stop
     style="stop-color:#0000ff;stop-opacity:1;"
     offset="0.75"
     id="stop3" /><stop
     style="stop-color:#ff0000;stop-opacity:1;"
     offset="1"
     id="stop46" /></linearGradient><linearGradient
   inkscape:collect="always"
   xlink:href="#linearGradient44"
   id="linearGradient46"
   x1="184.19099"
   y1="263.93094"
   x2="440.45853"
   y2="103.01599"
   gradientUnits="userSpaceOnUse"
   gradientTransform="matrix(0.73296282,0,0,1.0182202,133.55198,-63.809892)" />&#10;                &#10;                &#10;                &#10;                &#10;                &#10;                &#10;                &#10;                &#10;                &#10;                &#10;                &#10;                &#10;                &#10;                &#10;                &#10;                &#10;                &#10;                &#10;                &#10;            </defs><g
     inkscape:groupmode="layer"
     id="layer3"
     inkscape:label="Background"><rect
       style="fill:#348c6c;fill-opacity:1;stroke:#000000;stroke-width:8;stroke-linejoin:round;stroke-dasharray:none;stroke-opacity:1"
       id="rect29"
       width="503.82993"
       height="503.82175"
       x="4.1648808"
       y="4.1514301"
       ry="93.599571" /></g><g
     inkscape:groupmode="layer"
     id="layer2"
     inkscape:label="Layer 2"><path
       style="fill:none;fill-opacity:1;stroke:#000000;stroke-width:8;stroke-linejoin:round;stroke-dasharray:none;stroke-opacity:1"
       d="m 163.54985,152.54794 h 55.40283 v 65.16137 h -26.82423 v 60.54114 h 41.13944 V 397.8892 473.452 H 122.52816 v -30.30471"
       id="path47" /><path
       style="fill:none;fill-opacity:1;stroke:#000000;stroke-width:8;stroke-linejoin:round;stroke-dasharray:none;stroke-opacity:1"
       d="M 323.34373,401.88251 H 232.46724"
       id="path48"
       sodipodi:nodetypes="cc" /><path
       style="fill:none;fill-opacity:1;stroke:#000000;stroke-width:8;stroke-linejoin:round;stroke-dasharray:none;stroke-opacity:1"
       d="m 235.47675,315.06636 h 61.03095 v -61.50427 h 65.59938 v -70.66491"
       id="path49"
       sodipodi:nodetypes="ccccc" /></g><g
     inkscape:label="Layer 1"
     inkscape:groupmode="layer"
     id="layer1"><g
       id="g3"
       transform="translate(3.2013892)"
       inkscape:label="ESP"><rect
         style="fill:#a3a3a3;fill-opacity:1;stroke:#000000;stroke-width:4;stroke-linejoin:round;stroke-dasharray:none;stroke-opacity:1"
         id="rect46"
         width="121.13985"
         height="144.12514"
         x="58.756847"
         y="297.50839"
         rx="0"
         ry="0" /><rect
         style="fill:#000000;fill-opacity:1;stroke:#000000;stroke-width:4.1388;stroke-linejoin:round;stroke-dasharray:none;stroke-opacity:1"
         id="rect47"
         width="115.27434"
         height="33.881763"
         x="61.447823"
         y="404.65411" /><g
         id="g1431"
         inkscape:label="Squarewave"
         transform="matrix(0.29316856,0,0,-0.29316856,10.450317,460.05679)"
         style="display:inline">&#10;                &#10;                &#10;                &#10;                &#10;                &#10;                &#10;                &#10;                &#10;                &#10;                &#10;                &#10;                &#10;                &#10;                &#10;                &#10;                &#10;                &#10;                &#10;                <path
   inkscape:connector-curvature="0"
   id="path1473"
   style="display:inline;fill:#ccb634;fill-opacity:1;fill-rule:nonzero;stroke:none;stroke-width:0.1;stroke-opacity:1"
   d="m 562.7298,108.90035 c 0,0 0,-15.204297 0,-20.227297 -5.061,0 -18.544,0 -23.61,0 0.009,6.834 0.099,70.556997 0.099,70.556997 h -77.875 c 0,0 0,-63.421097 0,-70.242197 -6.432,0 -56.365,0 -62.797,0 0,6.8211 0,70.242197 0,70.242197 h -77.871 c 0,0 0,-63.421097 0,-70.242197 -6.432,0 -56.365,0 -62.799,0 0,6.8211 0,70.242197 0,70.242197 h -77.868 c 0,0 0,-63.421097 0,-70.242197 -2.557,0 -6.751,0 -10.243,0 v -7.6258 h 17.87 c 0,0 0,63.419997 0,70.240997 6.429,0 56.186,0 62.615,0 0,-6.821 0,-70.240997 0,-70.240997 h 78.052 c 0,0 0,63.419997 0,70.240997 6.43,0 56.186,0 62.617,0 0,-6.821 0,-70.240997 0,-70.240997 h 78.052 c 0,0 0,63.419997 0,70.240997 6.428,0 56.173,0 62.609,0 -0.009,-6.833 -0.099,-70.556197 -0.099,-70.556197 h 38.874 c 0,0 0,15.2063 0,20.227397 0.599,0 1.236,0 1.88,0 v 7.6261 h -9.506" />&#10;            </g></g><g
       id="g19"
       inkscape:label="Joystick"
       transform="matrix(1.2062733,0,0,-1.2062733,1.9138071,223.22705)">&#10;                <path
   inkscape:connector-curvature="0"
   id="path1"
   style="fill:#000000;fill-opacity:1;fill-rule:nonzero;stroke:none;stroke-width:0.1"
   d="m 91.6098,100.07 v 55.404 c 0,1.685 -1.3657,3.05 -3.0508,3.05 H 77.6023 c -1.6843,0 -3.0503,-1.365 -3.0503,-3.05 V 100.07 h 17.0578" />&#10;                <path
   inkscape:connector-curvature="0"
   id="path2"
   style="fill:#000000;fill-opacity:1;fill-rule:nonzero;stroke:none;stroke-width:0.1"
   d="m 131.568,83.3309 h -21.579 c 0,0 0,2.7929 0,6.3492 6.178,2.7308 14.652,2.784 21.579,0 0,-2.066 0,-6.3492 0,-6.3492" />&#10;                <path
   inkscape:connector-curvature="0"
   id="path3"
   style="fill:#000000;fill-opacity:1;fill-rule:nonzero;stroke:none;stroke-width:0.1"
   d="m 68.2516,98.4988 c -1.17,0 -2.1188,-0.948 -2.1188,-2.1183 0,-1.1711 0.9488,-2.1184 2.1188,-2.1184 h 29.6589 c 1.1696,0 2.1185,0.9473 2.1185,2.1184 0,1.1703 -0.9489,2.1183 -2.1185,2.1183 H 68.2516" />&#10;                <path
   inkscape:connector-curvature="0"
   id="path4"
   style="fill:#000000;fill-opacity:1;fill-rule:nonzero;stroke:none;stroke-width:0.1"
   d="m 64.8617,92.9922 c -1.1699,0 -2.1183,-0.95 -2.1183,-2.1192 0,-1.171 0.9484,-2.1199 2.1183,-2.1199 H 101.3 c 1.17,0 2.118,0.9489 2.118,2.1199 0,1.1692 -0.948,2.1192 -2.118,2.1192 H 64.8617" />&#10;                <path
   inkscape:connector-curvature="0"
   id="path5"
   style="fill:#000000;fill-opacity:1;fill-rule:nonzero;stroke:none;stroke-width:0.1"
   d="m 61.8961,87.4832 c -1.1699,0 -2.1188,-0.948 -2.1188,-2.1191 0,-1.17 0.9489,-2.118 2.1188,-2.118 h 42.3699 c 1.17,0 2.118,0.948 2.118,2.118 0,1.1711 -0.948,2.1191 -2.118,2.1191 H 61.8961" />&#10;                &#10;                &#10;                &#10;                &#10;                <path
   inkscape:connector-curvature="0"
   id="path10"
   style="fill:#000000;fill-opacity:1;fill-rule:nonzero;stroke:none;stroke-width:0.1"
   d="m 134.349,38.7039 c 0,-1.6867 -1.366,-3.0508 -3.051,-3.0508 H 34.8637 c -1.6844,0 -3.05,1.3641 -3.05,3.0508 v 39.7793 c 0,1.684 1.3656,3.0496 3.05,3.0496 h 96.4343 c 1.685,0 3.051,-1.3656 3.051,-3.0496 V 38.7039" />&#10;                &#10;                &#10;                &#10;                &#10;                &#10;                &#10;                &#10;                &#10;                &#10;            </g><g
       id="g29"
       inkscape:label="Speaker"
       transform="matrix(1.2062733,0,0,-1.2062733,-333.2428,518.58402)"
       style="display:inline">&#10;                &#10;                &#10;                &#10;                &#10;                &#10;                <path
   inkscape:connector-curvature="0"
   id="path24"
   style="fill:#000000;fill-opacity:1;fill-rule:nonzero;stroke:none;stroke-width:0.1"
   d="m 541.917,114.753 c 0,-2.297 0,-33.7171 0,-36.0139 2.125,0 17.72,0 19.845,0 0,2.2968 0,33.7169 0,36.0139 -2.125,0 -17.72,0 -19.845,0" />&#10;                <path
   inkscape:connector-curvature="0"
   id="path25"
   style="fill:#000000;fill-opacity:1;fill-rule:nonzero;stroke:none;stroke-width:0.1"
   d="m 615.289,124.41 c -0.994,-0.994 -0.994,-2.603 0,-3.595 6.413,-6.415 9.803,-14.264 9.803,-22.7002 0,-8.6539 -3.665,-17.4839 -9.803,-23.6238 -0.994,-0.991 -0.994,-2.6019 0,-3.5961 0.99,-0.9929 2.601,-0.9929 3.594,0 7.073,7.0723 11.294,17.2481 11.294,27.2199 0,9.8142 -3.906,18.9072 -11.294,26.2952 -0.993,0.993 -2.604,0.993 -3.594,0" />&#10;                <path
   inkscape:connector-curvature="0"
   id="path26"
   style="fill:#000000;fill-opacity:1;fill-rule:nonzero;stroke:none;stroke-width:0.1"
   d="m 630.891,135.805 c -0.993,-0.992 -0.993,-2.603 0,-3.596 21.628,-21.63 16.984,-52.1262 0,-69.1121 -0.993,-0.9938 -0.993,-2.602 0,-3.5949 0.992,-0.993 2.601,-0.993 3.595,0 18.752,18.7539 23.88,52.422 0,76.302 -0.994,0.993 -2.604,0.993 -3.595,0.001" />&#10;                <path
   inkscape:connector-curvature="0"
   id="path27"
   style="fill:#000000;fill-opacity:1;fill-rule:nonzero;stroke:none;stroke-width:0.1"
   d="m 645.458,152.082 c -0.993,-0.992 -0.993,-2.602 0,-3.595 14.067,-14.066 21.501,-31.307 21.501,-49.8608 0,-18.9774 -8.037,-38.3442 -21.501,-51.809 -0.993,-0.991 -0.993,-2.6024 0,-3.5942 0.994,-0.9929 2.604,-0.9929 3.595,0 14.397,14.395 22.991,35.1079 22.991,55.4032 0,19.9318 -7.949,38.4158 -22.991,53.4558 -0.991,0.993 -2.601,0.993 -3.595,0" />&#10;                &#10;                &#10;                &#10;                &#10;                &#10;                &#10;                &#10;                &#10;                <path
   inkscape:connector-curvature="0"
   id="path29"
   style="fill:#000000;fill-opacity:1;fill-rule:nonzero;stroke:none;stroke-width:0.1"
   d="M 564.303,114.861 V 78.6289 L 607.501,35.432 v 122.627 l -43.198,-43.198" />&#10;                &#10;            </g><rect
       style="fill:url(#linearGradient46);stroke:#000000;stroke-width:2.07486;stroke-linejoin:round;stroke-dasharray:none;stroke-opacity:1"
       id="rect30"
       width="137.92514"
       height="117.92514"
       x="293.1445"
       y="64.520027"
       ry="20.809433"
       rx="20.688017"
       inkscape:label="screen" /></g></svg>
